<svg width="196" height="74" viewBox="0 0 196 74" fill="none" xmlns="http://www.w3.org/2000/svg">
<rect width="196" height="74" fill="#D9D9D9"/>
<path d="M34.512 48V47.424C34.512 46.896 34.752 46.56 35.232 46.416C35.352 46.368 35.484 46.344 35.628 46.344L37.284 46.272V25.428L34.656 25.212C34.56 24.156 34.896 23.628 35.664 23.628H50.856V28.704C50.856 29.448 50.328 29.772 49.272 29.676L48.912 25.608L39.876 25.428V35.04L46.788 34.572C46.956 35.46 46.956 36.324 46.788 37.164L39.876 36.768V46.2L49.416 45.948L49.776 42.132C50.832 42.036 51.36 42.36 51.36 43.104V48H34.512ZM73.0593 48H66.3633V47.712C66.3633 47.136 66.5313 46.776 66.8673 46.632C67.0353 46.536 67.2393 46.476 67.4793 46.452L69.0633 46.38V37.056C69.0633 33.696 67.7313 32.016 65.0673 32.016C64.0833 32.016 63.1953 32.208 62.4033 32.592C61.6113 32.976 60.7113 33.588 59.7033 34.428V46.308L62.2593 46.524C62.3553 47.508 62.0313 48 61.2873 48H54.5193V47.712C54.5193 46.944 54.9033 46.524 55.6713 46.452L57.2193 46.38V32.196L55.3473 31.98C54.7713 31.932 54.4833 31.44 54.4833 30.504L59.1273 29.892L59.5953 32.628H59.7033C61.6473 30.78 63.6513 29.856 65.7153 29.856C67.3233 29.856 68.6913 30.42 69.8193 31.548C70.9713 32.676 71.5473 34.416 71.5473 36.768V46.308L74.0673 46.524C74.1633 47.508 73.8273 48 73.0593 48ZM87.3614 30.396H92.0054C92.0534 31.356 91.6934 31.86 90.9254 31.908L90.7094 31.944L84.2294 48H82.5374L76.4894 32.088L75.0854 31.872C75.0134 30.888 75.3254 30.396 76.0214 30.396H81.7814V30.648C81.7814 30.84 81.7574 30.984 81.7094 31.08C81.6854 31.152 81.6374 31.26 81.5654 31.404C81.4694 31.692 81.1574 31.86 80.6294 31.908L79.2614 32.016L83.7254 44.58L88.4054 32.088L86.3534 31.872C86.2574 30.888 86.5934 30.396 87.3614 30.396ZM100.701 48H93.8608V47.712C93.8608 47.136 94.0288 46.776 94.3648 46.632C94.5328 46.536 94.7368 46.476 94.9768 46.452L96.4888 46.38V32.124L94.6168 31.98C94.0408 31.908 93.7528 31.392 93.7528 30.432L98.9728 29.856V46.308L101.709 46.524C101.805 47.508 101.469 48 100.701 48ZM98.7208 26.58C98.3848 26.892 97.9528 27.048 97.4248 27.048C96.8968 27.048 96.4648 26.892 96.1288 26.58C95.8168 26.244 95.6608 25.812 95.6608 25.284C95.6608 24.756 95.8168 24.324 96.1288 23.988C96.4648 23.652 96.8968 23.484 97.4248 23.484C97.9528 23.484 98.3848 23.652 98.7208 23.988C99.0568 24.324 99.2248 24.756 99.2248 25.284C99.2248 25.812 99.0568 26.244 98.7208 26.58ZM104.085 34.896C104.109 33.336 104.745 32.1 105.993 31.188C107.241 30.276 108.597 29.832 110.061 29.856C111.549 29.88 112.773 30.144 113.733 30.648C114.693 31.128 115.161 31.848 115.137 32.808C115.113 33.456 114.885 33.924 114.453 34.212C114.021 34.5 113.553 34.62 113.049 34.572C113.073 33.732 112.809 33.048 112.257 32.52C111.729 31.992 110.949 31.716 109.917 31.692C108.885 31.668 108.021 31.908 107.325 32.412C106.653 32.892 106.305 33.516 106.281 34.284C106.257 35.052 106.593 35.676 107.289 36.156C108.009 36.612 109.017 37.092 110.313 37.596C111.609 38.1 112.485 38.472 112.941 38.712C113.421 38.928 113.937 39.228 114.489 39.612C115.521 40.332 116.013 41.424 115.965 42.888C115.941 44.352 115.305 45.672 114.057 46.848C112.809 48 111.141 48.564 109.053 48.54C107.565 48.492 106.257 48.18 105.129 47.604C104.001 47.004 103.437 46.188 103.437 45.156C103.461 44.604 103.641 44.172 103.977 43.86C104.337 43.524 104.769 43.368 105.273 43.392C105.465 44.376 105.945 45.168 106.713 45.768C107.505 46.368 108.477 46.68 109.629 46.704C110.781 46.704 111.741 46.44 112.509 45.912C113.277 45.36 113.673 44.64 113.697 43.752C113.721 42.864 113.445 42.192 112.869 41.736C112.317 41.28 111.513 40.86 110.457 40.476C109.401 40.068 108.657 39.78 108.225 39.612C107.817 39.444 107.301 39.192 106.677 38.856C106.077 38.52 105.609 38.184 105.273 37.848C104.481 37.008 104.085 36.024 104.085 34.896ZM134.237 46.884C134.237 48.012 133.493 48.576 132.005 48.576C130.517 48.576 129.653 47.82 129.413 46.308C127.877 47.796 126.029 48.54 123.869 48.54C122.213 48.54 120.893 48.12 119.909 47.28C118.949 46.416 118.469 45.252 118.469 43.788C118.469 42.324 119.009 41.088 120.089 40.08C121.169 39.072 122.957 38.568 125.453 38.568C126.917 38.568 128.213 38.736 129.341 39.072V36.228C129.341 34.86 128.993 33.768 128.297 32.952C127.625 32.112 126.629 31.692 125.309 31.692C123.989 31.692 123.041 32.052 122.465 32.772C121.913 33.468 121.601 34.284 121.529 35.22C120.953 35.268 120.473 35.148 120.089 34.86C119.705 34.572 119.513 34.104 119.513 33.456C119.513 32.424 120.041 31.572 121.097 30.9C122.153 30.204 123.521 29.856 125.201 29.856C126.665 29.856 128.057 30.216 129.377 30.936C130.121 31.32 130.721 31.956 131.177 32.844C131.633 33.732 131.861 34.812 131.861 36.084V46.596L134.237 46.884ZM129.341 41.232C128.237 40.632 126.953 40.332 125.489 40.332C124.025 40.332 122.945 40.608 122.249 41.16C121.577 41.712 121.241 42.468 121.241 43.428C121.241 44.388 121.541 45.156 122.141 45.732C122.741 46.284 123.569 46.56 124.625 46.56C126.305 46.56 127.877 45.912 129.341 44.616V41.232ZM142.011 44.58L143.091 44.616C146.019 44.664 148.083 45.012 149.283 45.66C150.507 46.284 151.119 47.448 151.119 49.152C151.119 51.24 150.351 52.92 148.815 54.192C147.279 55.488 145.299 56.136 142.875 56.136C140.475 56.136 138.651 55.68 137.403 54.768C136.155 53.88 135.531 52.728 135.531 51.312C135.531 49.488 136.479 47.868 138.375 46.452C137.775 46.14 137.475 45.6 137.475 44.832C137.475 44.04 138.075 43.02 139.275 41.772C137.451 40.836 136.479 39.228 136.359 36.948C136.239 35.028 136.779 33.372 137.979 31.98C139.179 30.564 140.811 29.856 142.875 29.856C144.243 29.856 145.455 30.192 146.511 30.864L150.867 29.712C151.083 30 151.203 30.36 151.227 30.792C151.251 31.224 151.131 31.56 150.867 31.8C150.483 31.992 149.451 32.064 147.771 32.016C148.539 33.024 148.899 34.416 148.851 36.192C148.827 37.944 148.251 39.432 147.123 40.656C146.019 41.88 144.459 42.492 142.443 42.492C141.891 42.492 141.339 42.432 140.787 42.312C139.827 43.44 139.587 44.112 140.067 44.328C140.499 44.496 141.147 44.58 142.011 44.58ZM139.815 32.916C139.143 33.804 138.807 34.896 138.807 36.192C138.807 37.488 139.131 38.592 139.779 39.504C140.451 40.416 141.375 40.86 142.551 40.836C143.751 40.812 144.687 40.344 145.359 39.432C146.055 38.52 146.403 37.428 146.403 36.156C146.403 34.86 146.079 33.768 145.431 32.88C144.783 31.968 143.859 31.524 142.659 31.548C141.459 31.572 140.511 32.028 139.815 32.916ZM137.655 50.412C137.655 51.612 138.159 52.5 139.167 53.076C140.175 53.676 141.567 53.976 143.343 53.976C145.119 53.976 146.547 53.568 147.627 52.752C148.707 51.936 149.247 50.952 149.247 49.8C149.247 48.672 148.611 47.928 147.339 47.568C146.235 47.28 144.819 47.112 143.091 47.064C141.387 47.016 140.247 46.944 139.671 46.848C138.327 48.024 137.655 49.212 137.655 50.412ZM167.027 38.532H155.723C155.699 38.772 155.687 39.144 155.687 39.648C155.687 41.688 156.119 43.344 156.983 44.616C157.847 45.864 159.191 46.488 161.015 46.488C162.839 46.488 164.579 45.84 166.235 44.544C166.523 44.784 166.667 45.084 166.667 45.444C166.667 46.116 166.007 46.8 164.687 47.496C163.391 48.192 161.927 48.54 160.295 48.54C158.063 48.54 156.275 47.808 154.931 46.344C153.611 44.88 152.951 42.648 152.951 39.648C152.951 36.648 153.743 34.272 155.327 32.52C156.911 30.744 158.783 29.856 160.943 29.856C163.103 29.856 164.663 30.54 165.623 31.908C166.583 33.276 167.051 34.908 167.027 36.804V38.532ZM164.399 36.912C164.399 35.304 164.087 34.032 163.463 33.096C162.839 32.136 161.927 31.656 160.727 31.656C159.551 31.656 158.543 32.124 157.703 33.06C156.863 33.996 156.275 35.28 155.939 36.912H164.399Z" fill="black"/>
</svg>
